<svg version="1.1" id="Layer_1" xmlns="http://www.w3.org/2000/svg" xmlns:xlink="http://www.w3.org/1999/xlink" x="0px" y="0px"
	 width="100%" viewBox="0 0 208 192" enable-background="new 0 0 208 192" xml:space="preserve">
<path fill="#000000" opacity="1.000000" stroke="none" 
	d="
M98.992020,24.771114 
	C108.079926,27.753553 115.910713,32.630096 124.409599,36.020401 
	C126.229836,36.746517 127.867928,38.056557 129.980270,37.840893 
	C131.309036,36.658295 130.863205,35.004360 131.199280,33.608521 
	C132.147644,29.669647 134.363281,27.542791 138.569473,27.644884 
	C142.231461,27.733765 145.899200,27.587032 149.561066,27.678411 
	C154.689743,27.806393 157.076965,30.165085 157.271515,35.415333 
	C157.419434,39.407425 157.472336,43.416519 157.274170,47.403469 
	C157.128464,50.334660 158.275970,51.999638 160.898026,53.190086 
	C167.718475,56.286659 174.454910,59.568367 181.223740,62.778542 
	C184.052536,64.120117 187.019775,65.728745 185.438660,69.453094 
	C183.721771,73.497238 180.441574,72.346344 177.383026,70.944321 
	C174.384995,69.570015 171.376266,68.218979 168.369980,66.856712 
	C166.684906,68.952248 167.310059,71.018188 167.306763,72.905823 
	C167.257584,101.053360 167.279572,129.201004 167.262146,157.348618 
	C167.256332,166.728745 164.170624,169.971420 154.667450,170.001617 
	C126.853218,170.089981 99.038521,170.042236 71.224045,170.012939 
	C69.742165,170.011383 68.239334,169.792328 66.783875,169.492111 
	C64.556068,169.032623 63.210396,167.527496 63.234661,165.286972 
	C63.261559,162.803314 64.857613,161.286469 67.237099,160.885101 
	C68.862633,160.610931 70.556824,160.701645 72.220345,160.701157 
	C98.702438,160.693314 125.185318,160.593353 151.665894,160.794708 
	C156.386566,160.830597 157.992798,159.571228 157.959000,154.669647 
	C157.757019,125.357582 157.802521,96.043159 157.934341,66.730286 
	C157.950943,63.036415 156.724869,61.010597 153.363647,59.482410 
	C136.693848,51.903423 120.066597,44.225307 103.548279,36.323074 
	C100.000214,34.625713 97.131203,34.764305 93.734863,36.448917 
	C85.683784,40.442318 77.491974,44.152699 69.343964,47.949417 
	C67.686264,48.721859 66.020538,49.549580 64.270531,50.033978 
	C61.829880,50.709541 59.573013,50.357380 58.423340,47.677834 
	C57.241718,44.923813 58.680302,43.096806 60.936909,41.975983 
	C66.601051,39.162697 72.316673,36.444633 78.085419,33.852547 
	C84.903221,30.789076 91.398140,26.991680 98.992020,24.771114 
M145.200974,45.862183 
	C150.245834,46.209473 148.136978,42.370399 148.408859,40.130199 
	C148.831070,36.651325 146.563507,36.273426 143.721832,36.281700 
	C140.235229,36.291859 140.319138,38.439774 140.262497,40.894947 
	C140.192245,43.940945 142.534210,44.575851 145.200974,45.862183 
z"/>
<path fill="#000000" opacity="1.000000" stroke="none" 
	d="
M54.229774,152.332932 
	C51.025524,152.873856 51.334072,155.079239 51.279865,157.052429 
	C51.197578,160.047684 51.383583,163.070557 51.034435,166.032043 
	C50.737309,168.552292 49.220863,170.334869 46.355064,170.264954 
	C43.702454,170.200241 42.417603,168.432770 42.123581,166.135452 
	C41.787304,163.507965 41.601349,160.788101 41.895809,158.169769 
	C42.365669,153.991699 40.664814,152.237839 36.621750,151.551468 
	C26.649153,149.858505 18.662277,144.764908 12.761031,136.517212 
	C3.489338,123.558922 3.171732,108.118286 12.356076,94.466011 
	C21.836601,80.373466 31.660437,66.511002 41.401508,52.595078 
	C44.945568,47.532097 47.946121,47.479561 51.426796,52.466076 
	C61.245541,66.532715 71.178650,80.526718 80.671738,94.811806 
	C95.107460,116.534492 83.794113,145.086212 58.511532,151.348907 
	C57.220356,151.668747 55.923878,151.967178 54.229774,152.332932 
M75.724030,126.109505 
	C79.421661,116.361702 78.397507,107.247292 72.353004,98.641006 
	C64.599312,87.601158 57.016106,76.441689 49.315399,65.364372 
	C48.498909,64.189873 47.943264,62.658749 45.845890,62.177132 
	C44.509975,64.072823 43.076427,66.071541 41.679356,68.095459 
	C34.016403,79.196640 25.940474,90.040779 18.808109,101.473373 
	C9.072345,117.079002 18.654518,138.548279 36.633507,142.427505 
	C38.311901,142.789627 40.325462,143.542557 41.503517,141.328278 
	C43.343712,137.869431 41.266953,124.902611 38.426685,122.026558 
	C35.501122,119.064125 32.486320,116.184715 29.663681,113.127609 
	C27.914299,111.232903 27.340115,108.868996 29.378006,106.866974 
	C31.455267,104.826271 33.837269,105.059998 36.128662,106.846397 
	C37.766834,108.123528 38.694916,110.369507 41.172661,110.661255 
	C42.325230,108.940582 41.769966,107.068474 41.804996,105.313988 
	C41.901417,100.484901 41.774197,95.650993 41.892506,90.822838 
	C41.963837,87.912094 43.113731,85.277550 46.379929,85.227669 
	C49.899353,85.173889 51.098083,87.838852 51.226635,90.996811 
	C51.301125,92.826591 51.214638,94.662689 51.279404,96.493156 
	C51.447170,101.234749 50.820614,106.019081 51.724529,111.073059 
	C54.430641,110.156990 55.532852,107.872154 57.422791,106.641861 
	C59.558807,105.251389 61.819725,104.772736 63.776501,106.815353 
	C65.723412,108.847679 65.402878,111.107986 63.615021,113.082146 
	C61.715988,115.179047 59.916176,117.511131 57.620911,119.078362 
	C48.343178,125.413292 51.803631,134.504669 51.366230,143.522202 
	C62.784485,141.756287 70.716736,136.609482 75.724030,126.109505 
z"/>
</svg>